static_grf.mot
version=1
nRows=27
nColumns 19
inDegrees=yes
endheader
time	1_ground_force_vx	1_ground_force_vy	1_ground_force_vz	1_ground_force_px	1_ground_force_py	1_ground_force_pz	1_ground_torque_x	1_ground_torque_y	1_ground_torque_z	2_ground_force_vx	2_ground_force_vy	2_ground_force_vz	2_ground_force_px	2_ground_force_py	2_ground_force_pz	2_ground_torque_x	2_ground_torque_y	2_ground_torque_z
            0.005000	           -2.584502	          277.168751	          -22.329896	           -0.242110	            0.005930	           -0.337292	           -0.014530	            1.558219	           -0.125537	            0.828496	          266.567173	           25.071709	           -0.250679	            0.005473	           -0.667983	           -0.002680	           -0.862393	           -0.081111
            0.005500	           -2.584940	          276.448672	          -22.562267	           -0.242202	            0.005929	           -0.337066	           -0.014356	            1.535272	           -0.125301	            0.972307	          265.647419	           24.927580	           -0.250876	            0.005469	           -0.667270	           -0.003255	           -0.889179	           -0.083438
            0.006000	           -2.446827	          276.988285	          -22.285154	           -0.241614	            0.005929	           -0.337067	           -0.013926	            1.576513	           -0.126839	            0.737495	          265.829938	           25.162977	           -0.250806	            0.005471	           -0.667664	           -0.002338	           -0.842757	           -0.079774
            0.006500	           -2.493221	          276.268393	          -22.563268	           -0.241913	            0.005930	           -0.337459	           -0.014103	            1.562723	           -0.127630	            0.971662	          265.831453	           24.975165	           -0.250773	            0.005470	           -0.667246	           -0.003452	           -0.944327	           -0.088721
            0.007000	           -2.309783	          275.907897	          -22.565269	           -0.242167	            0.005930	           -0.337358	           -0.013107	            1.565609	           -0.128044	            0.738181	          265.645569	           25.209248	           -0.250759	            0.005470	           -0.667265	           -0.002238	           -0.805385	           -0.076429
            0.007500	           -2.401179	          276.808452	          -22.377753	           -0.241671	            0.005929	           -0.337202	           -0.013884	            1.600566	           -0.129393	            0.781687	          266.566670	           25.165585	           -0.250613	            0.005473	           -0.668053	           -0.002478	           -0.845194	           -0.079792
            0.008000	           -2.492637	          276.808041	          -22.285813	           -0.241840	            0.005931	           -0.337594	           -0.013949	            1.549022	           -0.124712	            0.924292	          266.014253	           25.304339	           -0.250850	            0.005471	           -0.667711	           -0.003049	           -0.877466	           -0.083468
            0.008500	           -2.538138	          276.807442	          -22.148132	           -0.242044	            0.005929	           -0.337235	           -0.014464	            1.577448	           -0.126216	            0.924936	          265.830280	           25.256754	           -0.250727	            0.005472	           -0.667949	           -0.003005	           -0.863689	           -0.082060
            0.009000	           -2.492619	          276.087175	          -22.334761	           -0.242051	            0.005930	           -0.337410	           -0.014372	            1.591818	           -0.128774	            0.787607	          264.909844	           25.018888	           -0.250929	            0.005468	           -0.666805	           -0.002618	           -0.880725	           -0.083178
            0.009500	           -2.355270	          276.447930	          -22.379412	           -0.241961	            0.005931	           -0.337510	           -0.013248	            1.554985	           -0.125881	            0.881265	          264.910517	           24.924992	           -0.250989	            0.005467	           -0.666807	           -0.003044	           -0.914953	           -0.086086
            0.010000	           -2.584566	          276.267786	          -22.425473	           -0.242083	            0.005931	           -0.337642	           -0.014138	            1.511274	           -0.122675	            0.692722	          265.276616	           25.348738	           -0.250996	            0.005468	           -0.666963	           -0.002106	           -0.806460	           -0.077062
            0.010500	           -2.401113	          276.447921	          -22.379299	           -0.241876	            0.005930	           -0.337445	           -0.014180	            1.632570	           -0.132161	            0.878689	          265.646411	           25.115332	           -0.250740	            0.005470	           -0.667268	           -0.002859	           -0.864361	           -0.081720
            0.011000	           -2.400723	          276.807666	          -22.194329	           -0.241893	            0.005931	           -0.337579	           -0.013504	            1.557085	           -0.124846	            0.595657	          266.197377	           25.258207	           -0.250423	            0.005473	           -0.667751	           -0.001901	           -0.849539	           -0.080609
            0.011500	           -2.767596	          276.267160	          -22.287450	           -0.242028	            0.005931	           -0.337558	           -0.015706	            1.567819	           -0.126482	            1.206556	          265.648264	           24.927480	           -0.250591	            0.005471	           -0.667485	           -0.004054	           -0.892504	           -0.083749
            0.012000	           -2.538531	          277.709133	          -22.235979	           -0.241885	            0.005928	           -0.336915	           -0.014231	            1.556838	           -0.124655	            0.923545	          266.199063	           25.117284	           -0.250563	            0.005471	           -0.667473	           -0.002977	           -0.858041	           -0.080961
            0.012500	           -2.584631	          276.628317	          -22.423927	           -0.241719	            0.005929	           -0.337061	           -0.014486	            1.550375	           -0.125676	            0.829119	          266.383368	           24.977196	           -0.250751	            0.005472	           -0.667870	           -0.002802	           -0.900384	           -0.084424
            0.013000	           -2.447851	          276.990055	          -22.697857	           -0.241609	            0.005931	           -0.337469	           -0.013871	            1.569637	           -0.128623	            0.876675	          266.199061	           25.070375	           -0.250624	            0.005471	           -0.667544	           -0.002926	           -0.888539	           -0.083682
            0.013500	           -2.630184	          277.528881	          -22.236524	           -0.241760	            0.005927	           -0.336768	           -0.015010	            1.583772	           -0.126897	            0.689296	          266.198217	           25.117383	           -0.250758	            0.005470	           -0.667260	           -0.002354	           -0.909229	           -0.085791
            0.014000	           -2.401179	          276.808452	          -22.377753	           -0.241761	            0.005929	           -0.337199	           -0.013261	            1.528720	           -0.123585	            0.927553	          265.093990	           25.160269	           -0.250678	            0.005469	           -0.666925	           -0.003316	           -0.947753	           -0.089952
            0.014500	           -2.584437	          276.808220	          -22.331442	           -0.241783	            0.005929	           -0.337061	           -0.014482	            1.551110	           -0.125135	            0.927595	          265.093656	           25.254125	           -0.250913	            0.005468	           -0.666923	           -0.003078	           -0.879611	           -0.083796
            0.015000	           -2.355270	          276.447930	          -22.379412	           -0.241681	            0.005929	           -0.337171	           -0.013435	            1.576912	           -0.127656	            0.830448	          266.015086	           24.975882	           -0.250507	            0.005473	           -0.667780	           -0.002675	           -0.856897	           -0.080453
            0.015500	           -2.538723	          276.267795	          -22.425586	           -0.242203	            0.005929	           -0.337233	           -0.014128	            1.537405	           -0.124796	            0.833210	          265.277625	           25.207894	           -0.250619	            0.005470	           -0.667179	           -0.002746	           -0.874416	           -0.083091
            0.016000	           -2.538465	          277.348602	          -22.237525	           -0.241570	            0.005928	           -0.336885	           -0.013844	            1.512544	           -0.121274	            0.598254	          265.461255	           25.114795	           -0.250634	            0.005470	           -0.667148	           -0.001795	           -0.796325	           -0.075339
            0.016500	           -2.309199	          276.447545	          -22.287814	           -0.242014	            0.005930	           -0.337360	           -0.013259	            1.587279	           -0.127970	            1.072132	          263.989258	           25.250123	           -0.250688	            0.005467	           -0.666442	           -0.003764	           -0.926886	           -0.088655
            0.017000	           -2.538660	          277.168760	          -22.330010	           -0.241967	            0.005929	           -0.337088	           -0.014280	            1.559122	           -0.125610	            0.783681	          266.014247	           25.163614	           -0.250711	            0.005471	           -0.667639	           -0.002583	           -0.876624	           -0.082924
            0.017500	           -2.538821	          276.808622	          -22.423267	           -0.241843	            0.005928	           -0.336938	           -0.014199	            1.548124	           -0.125408	            0.974383	          265.094327	           25.113321	           -0.250772	            0.005468	           -0.666782	           -0.003241	           -0.881655	           -0.083522
            0.018000	           -2.584551	          276.808417	          -22.377298	           -0.241921	            0.005930	           -0.337339	           -0.014424	            1.544794	           -0.124882	            0.742065	          264.541561	           24.970665	           -0.250524	            0.005468	           -0.666644	           -0.002499	           -0.890934	           -0.084097
